:FULLY-SPECIFIED
:FORCE-ALL-JOINTS-BE-3DOF
:DEGREES
2039
root -3.08532 14.8884 21.9659 -176.946 15.6102 176.398
lfemur -31.787 17.9092 -17.1525
ltibia 61.1335 0 0
lfoot -16.1772 24.9957 0.0372256
ltoes -29.3205 0 0
rfemur -28.462 -5.13192 10.7241
rtibia 61.8081 0 0
rfoot 4.17258 -19.0595 2.03962
rtoes 0.543495 0 0
lowerback 12.6705 -0.511725 -2.60325
upperback -0.337443 -0.797147 3.04098
thorax -7.42868 -0.214669 4.82382
lowerneck -4.2221 2.83289 -1.54663
upperneck 5.56601 4.05842 -3.01496
head 2.92223 1.81619 -0.769699
lclavicle -3.36029e-14 2.89855e-14 -6.4576e-30
lhumerus -5.70902 -8.29988 76.303
lradius 53.542 0 0
lwrist -2.17846 0 0
lhand -25.3093 37.4275 0.00255607
lfingers 7.12502 0 0
lthumb 1.2125 67.3993 0.00220388
rclavicle -3.36029e-14 2.89855e-14 -6.4576e-30
rhumerus -28.2557 6.75746 -83.2087
rradius 74.1503 0 0
rwrist -16.8557 0 0
rhand 0.718603 -38.2317 -0.0644374
rfingers 7.12502 0 0
rthumb 26.2752 -66.3982 -0.0508186
2040
root -3.10649 14.884 21.8086 -177.533 14.0989 176.086
lfemur -30.3241 17.0988 -17.3098
ltibia 60.7108 0 0
lfoot -16.8054 24.8805 0.035389
ltoes -30.0143 0 0
rfemur -29.2488 -5.32899 10.4798
rtibia 60.5688 0 0
rfoot 5.23929 -17.996 2.17175
rtoes 0.82665 0 0
lowerback 12.8282 -0.378331 -2.86244
upperback -0.267321 -0.679056 2.92748
thorax -7.45458 -0.154341 4.82907
lowerneck -4.19637 2.27185 -1.95495
upperneck 5.92177 3.30687 -2.64973
head 3.02988 1.43096 -0.627236
lclavicle -3.58216e-14 2.59712e-14 -6.76802e-30
lhumerus -8.22284 -9.80386 77.6758
lradius 56.6335 0 0
lwrist 1.31818 0 0
lhand -25.2885 37.0995 0.00355686
lfingers 7.12502 0 0
lthumb 1.23264 67.0711 0.00315495
rclavicle -3.58216e-14 2.59712e-14 -6.76802e-30
rhumerus -23.9892 5.35872 -82.6407
rradius 70.8753 0 0
rwrist -11.3858 0 0
rhand 0.477929 -38.0171 -0.0674471
rfingers 7.12502 0 0
rthumb 26.0447 -66.2165 -0.0532655
2041
root -3.12765 14.8797 21.6513 -178.166 12.3992 175.76
lfemur -28.6981 16.2237 -17.4827
ltibia 60.2528 0 0
lfoot -17.4953 24.7707 0.0329626
ltoes -30.7674 0 0
rfemur -30.1152 -5.54977 10.1964
rtibia 59.2182 0 0
rfoot 6.44283 -16.8186 2.2882
rtoes 1.16441 0 0
lowerback 12.9962 -0.233434 -3.15388
upperback -0.191387 -0.553556 2.80237
thorax -7.48127 -0.0899913 4.83905
lowerneck -4.16583 1.65049 -2.40688
upperneck 6.30572 2.47176 -2.25233
head 3.1462 1.00402 -0.470496
lclavicle -3.83222e-14 2.2797e-14 -7.05203e-30
lhumerus -11.0965 -11.2963 79.2735
lradius 59.9284 0 0
lwrist 5.10238 0 0
lhand -25.2725 36.7407 0.00463111
lfingers 7.12502 0 0
lthumb 1.24802 66.7122 0.00418135
rclavicle -3.83222e-14 2.2797e-14 -7.05203e-30
rhumerus -19.3654 3.73872 -82.1636
rradius 67.2803 0 0
rwrist -5.39677 0 0
rhand 0.222273 -37.7809 -0.0699175
rfingers 7.12502 0 0
rthumb 25.7998 -66.0153 -0.0553266
2042
root -3.14881 14.8753 21.494 -178.842 10.4993 175.423
lfemur -26.9007 15.2821 -17.6767
ltibia 59.7579 0 0
lfoot -18.2499 24.6673 0.0299475
ltoes -31.5825 0 0
rfemur -31.0652 -5.79682 9.87199
rtibia 57.7509 0 0
rfoot 7.7913 -15.5212 2.38102
rtoes 1.56044 0 0
lowerback 13.1748 -0.076239 -3.47969
upperback -0.109432 -0.420414 2.66504
thorax -7.50871 -0.0214891 4.85417
lowerneck -4.12909 0.965569 -2.90493
upperneck 6.71789 1.54799 -1.82226
head 3.27134 0.533028 -0.298896
lclavicle -4.11215e-14 1.94604e-14 -7.283e-30
lhumerus -14.3615 -12.7462 81.1211
lradius 63.4328 0 0
lwrist 9.18648 0 0
lhand -25.2621 36.3497 0.00573411
lfingers 7.12502 0 0
lthumb 1.25815 66.3209 0.00524173
rclavicle -4.11215e-14 1.94604e-14 -7.283e-30
rhumerus -14.3656 1.88978 -81.8186
rradius 63.349 0 0
rwrist 1.13722 0 0
rhand -0.0486361 -37.522 -0.0716338
rfingers 7.12502 0 0
rthumb 25.5402 -65.7934 -0.0568243
2043
root -3.16997 14.871 21.3367 -179.563 8.3875 175.079
lfemur -24.9233 14.2724 -17.8982
ltibia 59.2245 0 0
lfoot -19.0726 24.5712 0.0263811
ltoes -32.4622 0 0
rfemur -32.1027 -6.07303 9.50488
rtibia 56.1618 0 0
rfoot 9.29245 -14.0981 2.44074
rtoes 2.019 0 0
lowerback 13.364 0.0939218 -3.84163
upperback -0.0212523 -0.27939 2.51493
thorax -7.53685 0.051295 4.87485
lowerneck -4.08448 0.213871 -3.45164
upperneck 7.1581 0.530385 -1.35924
head 3.40536 0.0156337 -0.111881
lclavicle -4.42366e-14 1.59588e-14 -7.4296e-30
lhumerus -18.0485 -14.1147 83.2425
lradius 67.1529 0 0
lwrist 13.5828 0 0
lhand -25.2576 35.9246 0.00680714
lfingers 7.12502 0 0
lthumb 1.26249 65.8959 0.00627853
rclavicle -4.42366e-14 1.59588e-14 -7.4296e-30
rhumerus -8.96614 -0.189589 -81.6535
rradius 59.0652 0 0
rwrist 8.24186 0 0
rhand -0.335431 -37.239 -0.0723512
rfingers 7.12502 0 0
rthumb 25.2657 -65.5499 -0.0575525
2044
root -3.19113 14.8666 21.1794 179.672 6.05213 174.735
lfemur -22.7571 13.1936 -18.1547
ltibia 58.6513 0 0
lfoot -19.9663 24.4834 0.0223377
ltoes -33.4093 0 0
rfemur -33.2313 -6.38158 9.09354
rtibia 54.4456 0 0
rfoot 10.9536 -12.5443 2.45623
rtoes 2.54383 0 0
lowerback 13.564 0.277799 -4.24157
upperback 0.0733457 -0.130239 2.35143
thorax -7.56565 0.128492 4.90151
lowerneck -4.03004 -0.607763 -4.04965
upperneck 7.62595 -0.586309 -0.863141
head 3.54826 -0.550532 0.0910741
lclavicle -4.76846e-14 1.22899e-14 -7.45549e-30
lhumerus -22.1866 -15.3543 85.6581
lradius 71.0949 0 0
lwrist 18.3037 0 0
lhand -25.2597 35.4641 0.00777203
lfingers 7.12502 0 0
lthumb 1.26052 65.4355 0.00721725
rclavicle -4.76846e-14 1.22899e-14 -7.45549e-30
rhumerus -3.13617 -2.49237 -81.724
rradius 54.4126 0 0
rwrist 15.9429 0 0
rhand -0.638405 -36.9311 -0.0717877
rfingers 7.12502 0 0
rthumb 24.9755 -65.2836 -0.0572761
2045
root -3.2123 14.8623 21.0221 178.862 3.48146 174.395
lfemur -20.3929 12.0454 -18.4547
ltibia 58.0365 0 0
lfoot -20.9342 24.4048 0.0179463
ltoes -34.4263 0 0
rfemur -34.4548 -6.72602 8.63675
rtibia 52.5969 0 0
rfoot 12.7813 -10.8553 2.41457
rtoes 3.13884 0 0
lowerback 13.7747 0.476182 -4.68137
upperback 0.174545 0.0272925 2.17398
thorax -7.59506 0.210232 4.93455
lowerneck -3.96349 -1.50244 -4.70175
upperneck 8.12082 -1.80741 -0.334004
head 3.69999 -1.16785 0.310466
lclavicle -5.14825e-14 8.45119e-15 -7.31898e-30
lhumerus -26.7995 -16.4077 88.3816
lradius 75.265 0 0
lwrist 23.3616 0 0
lhand -25.2688 34.9666 0.00853063
lfingers 7.12502 0 0
lthumb 1.25173 64.9384 0.00796373
rclavicle -5.14825e-14 8.45119e-15 -7.31898e-30
rhumerus 3.16468 -5.00022 -82.0935
rradius 49.3749 0 0
rwrist 24.266 0 0
rhand -0.957953 -36.597 -0.0696256
rfingers 7.12502 0 0
rthumb 24.6695 -64.9935 -0.0557261
2046
root -3.23346 14.8579 20.8648 178.007 0.663888 174.066
lfemur -17.8212 10.8284 -18.8079
ltibia 57.3787 0 0
lfoot -21.9795 24.3365 0.0133929
ltoes -35.5159 0 0
rfemur -35.7769 -7.11022 8.13358
rtibia 50.6106 0 0
rfoot 14.7813 -9.02765 2.30098
rtoes 3.80791 0 0
lowerback 13.9961 0.689897 -5.16286
upperback 0.282519 0.193467 1.982
thorax -7.62504 0.296647 4.9744
lowerneck -3.88216 -2.47321 -5.41087
upperneck 8.64187 -3.13831 0.227986
head 3.86043 -1.8387 0.546763
lclavicle -5.56472e-14 4.44007e-15 -6.97273e-30
lhumerus -31.9032 -17.2082 91.4161
lradius 79.6694 0 0
lwrist 28.7687 0 0
lhand -25.2855 34.4307 0.00896179
lfingers 7.12502 0 0
lthumb 1.23558 64.4029 0.00840165
rclavicle -5.56472e-14 4.44007e-15 -6.97273e-30
rhumerus 9.98849 -7.67993 -82.8342
rradius 43.9359 0 0
rwrist 33.237 0 0
rhand -1.29447 -36.2356 -0.0655075
rfingers 7.12502 0 0
rthumb 24.3472 -64.6784 -0.0525995
2047
root -3.25462 14.8535 20.7075 177.104 -2.41211 173.757
lfemur -15.0318 9.54426 -19.2252
ltibia 56.6762 0 0
lfoot -23.1054 24.2795 0.00893149
ltoes -36.6808 0 0
rfemur -37.2009 -7.53845 7.58343
rtibia 48.4814 0 0
rfoot 16.9584 -7.05929 2.09871
rtoes 4.55495 0 0
lowerback 14.2282 0.919812 -5.68787
upperback 0.397428 0.368554 1.77493
thorax -7.65551 0.387869 5.02146
lowerneck -3.783 -3.52303 -6.18016
upperneck 9.18807 -4.58444 0.822519
head 4.02939 -2.56551 0.80041
lclavicle -6.01959e-14 2.54088e-16 -6.36342e-30
lhumerus -37.5009 -17.6799 94.7491
lradius 84.3143 0 0
lwrist 34.5374 0 0
lhand -25.3104 33.8548 0.00891863
lfingers 7.12502 0 0
lthumb 1.21158 63.8276 0.00838992
rclavicle -6.01959e-14 2.54088e-16 -6.36342e-30
rhumerus 17.4007 -10.4791 -84.0265
rradius 38.0793 0 0
rwrist 42.8815 0 0
rhand -1.64833 -35.8459 -0.0590344
rfingers 7.12502 0 0
rthumb 24.0083 -64.3374 -0.0475564
2048
root -3.27578 14.8492 20.5502 176.149 -5.75788 173.475
lfemur -12.0138 8.19608 -19.7185
ltibia 55.9277 0 0
lfoot -24.3149 24.2346 0.00489305
ltoes -37.9236 0 0
rfemur -38.7303 -8.01537 6.98611
rtibia 46.2041 0 0
rfoot 19.316 -4.94963 1.78902
rtoes 5.38385 0 0
lowerback 14.4709 1.16683 -6.25823
upperback 0.519422 0.552832 1.55219
thorax -7.68644 0.484032 5.07616
lowerneck -3.66245 -4.65474 -7.01307
upperneck 9.75816 -6.1513 1.44918
head 4.2066 -3.35066 1.07183
lclavicle -6.51455e-14 -4.10923e-15 -5.43138e-30
lhumerus -43.58 -17.7403 98.3473
lradius 89.206 0 0
lwrist 40.6801 0 0
lhand -25.344 33.2374 0.00822563
lfingers 7.12502 0 0
lthumb 1.17919 63.211 0.0077599
rclavicle -6.51455e-14 -4.10923e-15 -5.43138e-30
rhumerus 25.4803 -13.3207 -85.7576
rradius 31.789 0 0
rwrist 53.2253 0 0
rhand -2.01993 -35.4266 -0.0497627
rfingers 7.12502 0 0
rthumb 23.6524 -63.9694 -0.0402177
2049
root -3.29695 14.8448 20.3929 175.136 -9.3846 173.23
lfemur -8.75522 6.78867 -20.3009
ltibia 55.1315 0 0
lfoot -25.6112 24.2028 0.00169608
ltoes -39.247 0 0
rfemur -40.3684 -8.54603 6.34188
rtibia 43.7734 0 0
rfoot 21.8557 -2.70003 1.35125
rtoes 6.29852 0 0
lowerback 14.7238 1.43191 -6.87574
upperback 0.648637 0.746589 1.31323
thorax -7.71775 0.585267 5.1389
lowerneck -3.51647 -5.87107 -7.91337
upperneck 10.3507 -7.84444 2.1075
head 4.39171 -4.1966 1.36142
lclavicle -7.05131e-14 -8.6524e-15 -4.11027e-30
lhumerus -50.1094 -17.3039 102.153
lradius 94.3505 0 0
lwrist 47.2091 0 0
lhand -25.3868 32.5769 0.0066757
lfingers 7.12502 0 0
lthumb 1.13791 62.5515 0.00631258
rclavicle -7.05131e-14 -8.6524e-15 -4.11027e-30
rhumerus 34.3169 -16.0974 -88.1166
rradius 25.0486 0 0
rwrist 64.2941 0 0
rhand -2.40962 -34.9768 -0.0372019
rfingers 7.12502 0 0
rthumb 23.2791 -63.5734 -0.0301628
2050
root -3.31811 14.8405 20.2356 174.058 -13.3031 173.037
lfemur -5.24309 5.32892 -20.9869
ltibia 54.286 0 0
lfoot -26.9974 24.1851 -0.000143195
ltoes -40.6536 0 0
rfemur -42.1184 -9.13584 5.65151
rtibia 41.184 0 0
rfoot 24.5776 -0.314084 0.762947
rtoes 7.30284 0 0
lowerback 14.9868 1.71604 -7.5422
upperback 0.78518 0.950101 1.05753
thorax -7.74938 0.691709 5.2101
lowerneck -3.3404 -7.17454 -8.88527
upperneck 10.964 -9.66941 2.79697
head 4.58428 -5.10577 1.66959
lclavicle -7.63156e-14 -1.33779e-14 -2.32673e-30
lhumerus -57.0398 -16.2875 106.081
lradius 99.7541 0 0
lwrist 54.1366 0 0
lhand -25.4393 31.8719 0.00402706
lfingers 7.12502 0 0
lthumb 1.08724 61.8477 0.00381556
rclavicle -7.63156e-14 -1.33779e-14 -2.32673e-30
rhumerus 44.0019 -18.6653 -91.1843
rradius 17.8418 0 0
rwrist 76.1137 0 0
rhand -2.81778 -34.4953 -0.0208118
rfingers 7.12502 0 0
rthumb 22.8881 -63.1483 -0.0169272
2051
root -3.33927 14.8361 20.0783 892.901 -17.524 172.91
lfemur -1.46318 3.82627 -21.7915
ltibia 53.3898 0 0
lfoot -28.4768 24.1824 0
ltoes -42.1462 0 0
rfemur -43.9835 -9.79064 4.91632
rtibia 38.4308 0 0
rfoot 27.4797 2.20206 0
rtoes 8.40071 0 0
lowerback 15.2595 2.02026 -8.25939
upperback 0.929203 1.16374 0.784456
thorax -7.78127 0.803491 5.29017
lowerneck -3.12889 -8.56751 -9.93353
upperneck 11.5963 -11.6318 3.5171
head 4.78381 -6.08059 1.99671
lclavicle -8.25702e-14 -1.82882e-14 0
lhumerus -64.3089 -14.6164 110.025
lradius 105.423 0 0
lwrist 61.4752 0 0
lhand -25.5021 31.1209 0
lfingers 7.12502 0 0
lthumb 1.02667 -658.902 0
rclavicle -8.25702e-14 -1.82882e-14 0
rhumerus 54.6114 -20.8408 -95.0141
rradius 10.1525 0 0
rwrist 88.7097 0 0
rhand -3.24475 -393.981 0
rfingers 7.12502 0 0
rthumb 22.4791 297.307 0
